<svg xmlns="http://www.w3.org/2000/svg" xmlns:xlink="http://www.w3.org/1999/xlink" width="512" zoomAndPan="magnify" viewBox="0 0 384 383.999986" height="512" preserveAspectRatio="xMidYMid meet" version="1.0"><defs><g/></defs><g fill="#ff00ff" fill-opacity="1"><g transform="translate(4.772516, 262.048096)"><g><path d="M 87.609375 -104.289062 L 107.707031 -105.09375 C 104.089844 -130.8125 81.582031 -142.066406 59.882812 -142.066406 C 43.605469 -142.066406 26.726562 -135.636719 17.28125 -123.378906 C 12.054688 -116.546875 9.445312 -108.507812 9.445312 -100.070312 C 9.445312 -99.066406 9.644531 -97.859375 9.644531 -96.652344 L 9.644531 -96.855469 C 11.855469 -67.515625 37.578125 -62.695312 59.480469 -60.484375 C 73.546875 -59.078125 88.011719 -57.269531 90.425781 -46.617188 C 90.824219 -44.808594 91.027344 -43.203125 91.027344 -41.796875 C 91.027344 -27.328125 74.550781 -18.886719 59.480469 -18.886719 C 46.417969 -18.886719 30.542969 -25.71875 29.136719 -38.78125 L 29.136719 -37.976562 L 28.9375 -40.992188 L 8.441406 -40.589844 L 8.640625 -36.773438 C 11.253906 -11.65625 37.578125 1.207031 59.277344 1.207031 C 84.597656 1.207031 111.523438 -14.46875 111.523438 -41.59375 C 111.523438 -44.410156 111.121094 -47.824219 110.519531 -50.839844 C 105.09375 -73.34375 81.179688 -78.367188 61.890625 -80.777344 C 46.214844 -82.183594 29.941406 -84.195312 29.941406 -100.472656 C 29.941406 -104.488281 30.945312 -108.507812 33.355469 -111.523438 C 39.183594 -118.957031 49.832031 -122.171875 59.480469 -122.171875 C 71.535156 -122.171875 84.796875 -116.746094 87.609375 -104.289062 Z M 87.609375 -104.289062 "/></g></g></g><g fill="#ff00ff" fill-opacity="1"><g transform="translate(122.925575, 262.048096)"><g><path d="M 17.28125 0 L 37.578125 0 L 37.578125 -99.066406 L 74.347656 -44.410156 L 85.800781 -44.410156 L 122.574219 -99.066406 L 122.574219 0 L 142.667969 0 L 142.667969 -140.660156 L 126.59375 -140.660156 L 80.175781 -72.339844 L 33.757812 -140.660156 L 17.28125 -140.660156 Z M 17.28125 0 "/></g></g></g><g fill="#ff00ff" fill-opacity="1"><g transform="translate(281.266755, 262.048096)"><g><path d="M 17.28125 0 L 37.578125 0 L 37.578125 -61.6875 L 93.839844 -61.6875 L 93.839844 -80.578125 L 37.578125 -80.578125 L 37.578125 -122.171875 L 101.074219 -122.171875 L 101.074219 -141.867188 L 17.28125 -141.867188 Z M 17.28125 0 "/></g></g></g><g fill="#00ffff" fill-opacity="1"><g transform="translate(-2.76295, 262.048096)"><g><path d="M 87.609375 -104.289062 L 107.707031 -105.09375 C 104.089844 -130.8125 81.582031 -142.066406 59.882812 -142.066406 C 43.605469 -142.066406 26.726562 -135.636719 17.28125 -123.378906 C 12.054688 -116.546875 9.445312 -108.507812 9.445312 -100.070312 C 9.445312 -99.066406 9.644531 -97.859375 9.644531 -96.652344 L 9.644531 -96.855469 C 11.855469 -67.515625 37.578125 -62.695312 59.480469 -60.484375 C 73.546875 -59.078125 88.011719 -57.269531 90.425781 -46.617188 C 90.824219 -44.808594 91.027344 -43.203125 91.027344 -41.796875 C 91.027344 -27.328125 74.550781 -18.886719 59.480469 -18.886719 C 46.417969 -18.886719 30.542969 -25.71875 29.136719 -38.78125 L 29.136719 -37.976562 L 28.9375 -40.992188 L 8.441406 -40.589844 L 8.640625 -36.773438 C 11.253906 -11.65625 37.578125 1.207031 59.277344 1.207031 C 84.597656 1.207031 111.523438 -14.46875 111.523438 -41.59375 C 111.523438 -44.410156 111.121094 -47.824219 110.519531 -50.839844 C 105.09375 -73.34375 81.179688 -78.367188 61.890625 -80.777344 C 46.214844 -82.183594 29.941406 -84.195312 29.941406 -100.472656 C 29.941406 -104.488281 30.945312 -108.507812 33.355469 -111.523438 C 39.183594 -118.957031 49.832031 -122.171875 59.480469 -122.171875 C 71.535156 -122.171875 84.796875 -116.746094 87.609375 -104.289062 Z M 87.609375 -104.289062 "/></g></g></g><g fill="#00ffff" fill-opacity="1"><g transform="translate(115.390109, 262.048096)"><g><path d="M 17.28125 0 L 37.578125 0 L 37.578125 -99.066406 L 74.347656 -44.410156 L 85.800781 -44.410156 L 122.574219 -99.066406 L 122.574219 0 L 142.667969 0 L 142.667969 -140.660156 L 126.59375 -140.660156 L 80.175781 -72.339844 L 33.757812 -140.660156 L 17.28125 -140.660156 Z M 17.28125 0 "/></g></g></g><g fill="#00ffff" fill-opacity="1"><g transform="translate(273.731289, 262.048096)"><g><path d="M 17.28125 0 L 37.578125 0 L 37.578125 -61.6875 L 93.839844 -61.6875 L 93.839844 -80.578125 L 37.578125 -80.578125 L 37.578125 -122.171875 L 101.074219 -122.171875 L 101.074219 -141.867188 L 17.28125 -141.867188 Z M 17.28125 0 "/></g></g></g><g fill="#ffffff" fill-opacity="1"><g transform="translate(1.004783, 262.048096)"><g><path d="M 87.609375 -104.289062 L 107.707031 -105.09375 C 104.089844 -130.8125 81.582031 -142.066406 59.882812 -142.066406 C 43.605469 -142.066406 26.726562 -135.636719 17.28125 -123.378906 C 12.054688 -116.546875 9.445312 -108.507812 9.445312 -100.070312 C 9.445312 -99.066406 9.644531 -97.859375 9.644531 -96.652344 L 9.644531 -96.855469 C 11.855469 -67.515625 37.578125 -62.695312 59.480469 -60.484375 C 73.546875 -59.078125 88.011719 -57.269531 90.425781 -46.617188 C 90.824219 -44.808594 91.027344 -43.203125 91.027344 -41.796875 C 91.027344 -27.328125 74.550781 -18.886719 59.480469 -18.886719 C 46.417969 -18.886719 30.542969 -25.71875 29.136719 -38.78125 L 29.136719 -37.976562 L 28.9375 -40.992188 L 8.441406 -40.589844 L 8.640625 -36.773438 C 11.253906 -11.65625 37.578125 1.207031 59.277344 1.207031 C 84.597656 1.207031 111.523438 -14.46875 111.523438 -41.59375 C 111.523438 -44.410156 111.121094 -47.824219 110.519531 -50.839844 C 105.09375 -73.34375 81.179688 -78.367188 61.890625 -80.777344 C 46.214844 -82.183594 29.941406 -84.195312 29.941406 -100.472656 C 29.941406 -104.488281 30.945312 -108.507812 33.355469 -111.523438 C 39.183594 -118.957031 49.832031 -122.171875 59.480469 -122.171875 C 71.535156 -122.171875 84.796875 -116.746094 87.609375 -104.289062 Z M 87.609375 -104.289062 "/></g></g></g><g fill="#ffffff" fill-opacity="1"><g transform="translate(119.157842, 262.048096)"><g><path d="M 17.28125 0 L 37.578125 0 L 37.578125 -99.066406 L 74.347656 -44.410156 L 85.800781 -44.410156 L 122.574219 -99.066406 L 122.574219 0 L 142.667969 0 L 142.667969 -140.660156 L 126.59375 -140.660156 L 80.175781 -72.339844 L 33.757812 -140.660156 L 17.28125 -140.660156 Z M 17.28125 0 "/></g></g></g><g fill="#ffffff" fill-opacity="1"><g transform="translate(277.499022, 262.048096)"><g><path d="M 17.28125 0 L 37.578125 0 L 37.578125 -61.6875 L 93.839844 -61.6875 L 93.839844 -80.578125 L 37.578125 -80.578125 L 37.578125 -122.171875 L 101.074219 -122.171875 L 101.074219 -141.867188 L 17.28125 -141.867188 Z M 17.28125 0 "/></g></g></g></svg>