<svg xmlns="http://www.w3.org/2000/svg" xmlns:xlink="http://www.w3.org/1999/xlink" width="512" zoomAndPan="magnify" viewBox="0 0 384 383.999986" height="512" preserveAspectRatio="xMidYMid meet" version="1.0"><defs><g/></defs><rect x="-38.4" width="460.8" fill="rgb(100%, 100%, 100%)" y="-38.399999" height="460.799983" fill-opacity="1"/><rect x="-38.4" width="460.8" fill="rgb(0%, 0%, 0%)" y="-38.399999" height="460.799983" fill-opacity="1"/><rect x="-38.4" width="460.8" fill="rgb(100%, 100%, 100%)" y="-38.399999" height="460.799983" fill-opacity="1"/><rect x="-38.4" width="460.8" fill="rgb(0%, 0%, 0%)" y="-38.399999" height="460.799983" fill-opacity="1"/><g fill="rgb(100%, 0%, 100%)" fill-opacity="1"><g transform="translate(59.694371, 241.499981)"><g><path d="M 61.910156 -73.695312 L 76.109375 -74.265625 C 73.554688 -92.441406 57.652344 -100.390625 42.316406 -100.390625 C 30.8125 -100.390625 18.886719 -95.847656 12.210938 -87.1875 C 8.519531 -82.359375 6.675781 -76.679688 6.675781 -70.714844 C 6.675781 -70.003906 6.816406 -69.152344 6.816406 -68.300781 L 6.816406 -68.441406 C 8.378906 -47.710938 26.554688 -44.304688 42.03125 -42.742188 C 51.972656 -41.746094 62.195312 -40.46875 63.898438 -32.945312 C 64.183594 -31.664062 64.324219 -30.53125 64.324219 -29.535156 C 64.324219 -19.3125 52.679688 -13.347656 42.03125 -13.347656 C 32.800781 -13.347656 21.582031 -18.175781 20.589844 -27.40625 L 20.589844 -26.835938 L 20.449219 -28.96875 L 5.964844 -28.683594 L 6.105469 -25.984375 C 7.953125 -8.234375 26.554688 0.851562 41.890625 0.851562 C 59.78125 0.851562 78.808594 -10.222656 78.808594 -29.394531 C 78.808594 -31.382812 78.523438 -33.796875 78.097656 -35.925781 C 74.265625 -51.828125 57.367188 -55.378906 43.734375 -57.082031 C 32.660156 -58.078125 21.15625 -59.496094 21.15625 -71 C 21.15625 -73.839844 21.867188 -76.679688 23.570312 -78.808594 C 27.691406 -84.0625 35.214844 -86.335938 42.03125 -86.335938 C 50.550781 -86.335938 59.921875 -82.5 61.910156 -73.695312 Z M 61.910156 -73.695312 "/></g></g></g><g fill="rgb(100%, 0%, 100%)" fill-opacity="1"><g transform="translate(143.188067, 241.499981)"><g><path d="M 12.210938 0 L 26.554688 0 L 26.554688 -70.003906 L 52.539062 -31.382812 L 60.632812 -31.382812 L 86.617188 -70.003906 L 86.617188 0 L 100.816406 0 L 100.816406 -99.398438 L 89.457031 -99.398438 L 56.65625 -51.117188 L 23.855469 -99.398438 L 12.210938 -99.398438 Z M 12.210938 0 "/></g></g></g><g fill="rgb(100%, 0%, 100%)" fill-opacity="1"><g transform="translate(255.080983, 241.499981)"><g><path d="M 12.210938 0 L 26.554688 0 L 26.554688 -43.59375 L 66.3125 -43.59375 L 66.3125 -56.941406 L 26.554688 -56.941406 L 26.554688 -86.335938 L 71.425781 -86.335938 L 71.425781 -100.25 L 12.210938 -100.25 Z M 12.210938 0 "/></g></g></g><g fill="rgb(0%, 100%, 100%)" fill-opacity="1"><g transform="translate(54.369379, 241.499981)"><g><path d="M 61.910156 -73.695312 L 76.109375 -74.265625 C 73.554688 -92.441406 57.652344 -100.390625 42.316406 -100.390625 C 30.8125 -100.390625 18.886719 -95.847656 12.210938 -87.1875 C 8.519531 -82.359375 6.675781 -76.679688 6.675781 -70.714844 C 6.675781 -70.003906 6.816406 -69.152344 6.816406 -68.300781 L 6.816406 -68.441406 C 8.378906 -47.710938 26.554688 -44.304688 42.03125 -42.742188 C 51.972656 -41.746094 62.195312 -40.46875 63.898438 -32.945312 C 64.183594 -31.664062 64.324219 -30.53125 64.324219 -29.535156 C 64.324219 -19.3125 52.679688 -13.347656 42.03125 -13.347656 C 32.800781 -13.347656 21.582031 -18.175781 20.589844 -27.40625 L 20.589844 -26.835938 L 20.449219 -28.96875 L 5.964844 -28.683594 L 6.105469 -25.984375 C 7.953125 -8.234375 26.554688 0.851562 41.890625 0.851562 C 59.78125 0.851562 78.808594 -10.222656 78.808594 -29.394531 C 78.808594 -31.382812 78.523438 -33.796875 78.097656 -35.925781 C 74.265625 -51.828125 57.367188 -55.378906 43.734375 -57.082031 C 32.660156 -58.078125 21.15625 -59.496094 21.15625 -71 C 21.15625 -73.839844 21.867188 -76.679688 23.570312 -78.808594 C 27.691406 -84.0625 35.214844 -86.335938 42.03125 -86.335938 C 50.550781 -86.335938 59.921875 -82.5 61.910156 -73.695312 Z M 61.910156 -73.695312 "/></g></g></g><g fill="rgb(0%, 100%, 100%)" fill-opacity="1"><g transform="translate(137.863074, 241.499981)"><g><path d="M 12.210938 0 L 26.554688 0 L 26.554688 -70.003906 L 52.539062 -31.382812 L 60.632812 -31.382812 L 86.617188 -70.003906 L 86.617188 0 L 100.816406 0 L 100.816406 -99.398438 L 89.457031 -99.398438 L 56.65625 -51.117188 L 23.855469 -99.398438 L 12.210938 -99.398438 Z M 12.210938 0 "/></g></g></g><g fill="rgb(0%, 100%, 100%)" fill-opacity="1"><g transform="translate(249.755991, 241.499981)"><g><path d="M 12.210938 0 L 26.554688 0 L 26.554688 -43.59375 L 66.3125 -43.59375 L 66.3125 -56.941406 L 26.554688 -56.941406 L 26.554688 -86.335938 L 71.425781 -86.335938 L 71.425781 -100.25 L 12.210938 -100.25 Z M 12.210938 0 "/></g></g></g><g fill="rgb(100%, 100%, 100%)" fill-opacity="1"><g transform="translate(57.031874, 241.499981)"><g><path d="M 61.910156 -73.695312 L 76.109375 -74.265625 C 73.554688 -92.441406 57.652344 -100.390625 42.316406 -100.390625 C 30.8125 -100.390625 18.886719 -95.847656 12.210938 -87.1875 C 8.519531 -82.359375 6.675781 -76.679688 6.675781 -70.714844 C 6.675781 -70.003906 6.816406 -69.152344 6.816406 -68.300781 L 6.816406 -68.441406 C 8.378906 -47.710938 26.554688 -44.304688 42.03125 -42.742188 C 51.972656 -41.746094 62.195312 -40.46875 63.898438 -32.945312 C 64.183594 -31.664062 64.324219 -30.53125 64.324219 -29.535156 C 64.324219 -19.3125 52.679688 -13.347656 42.03125 -13.347656 C 32.800781 -13.347656 21.582031 -18.175781 20.589844 -27.40625 L 20.589844 -26.835938 L 20.449219 -28.96875 L 5.964844 -28.683594 L 6.105469 -25.984375 C 7.953125 -8.234375 26.554688 0.851562 41.890625 0.851562 C 59.78125 0.851562 78.808594 -10.222656 78.808594 -29.394531 C 78.808594 -31.382812 78.523438 -33.796875 78.097656 -35.925781 C 74.265625 -51.828125 57.367188 -55.378906 43.734375 -57.082031 C 32.660156 -58.078125 21.15625 -59.496094 21.15625 -71 C 21.15625 -73.839844 21.867188 -76.679688 23.570312 -78.808594 C 27.691406 -84.0625 35.214844 -86.335938 42.03125 -86.335938 C 50.550781 -86.335938 59.921875 -82.5 61.910156 -73.695312 Z M 61.910156 -73.695312 "/></g></g></g><g fill="rgb(100%, 100%, 100%)" fill-opacity="1"><g transform="translate(140.525569, 241.499981)"><g><path d="M 12.210938 0 L 26.554688 0 L 26.554688 -70.003906 L 52.539062 -31.382812 L 60.632812 -31.382812 L 86.617188 -70.003906 L 86.617188 0 L 100.816406 0 L 100.816406 -99.398438 L 89.457031 -99.398438 L 56.65625 -51.117188 L 23.855469 -99.398438 L 12.210938 -99.398438 Z M 12.210938 0 "/></g></g></g><g fill="rgb(100%, 100%, 100%)" fill-opacity="1"><g transform="translate(252.418486, 241.499981)"><g><path d="M 12.210938 0 L 26.554688 0 L 26.554688 -43.59375 L 66.3125 -43.59375 L 66.3125 -56.941406 L 26.554688 -56.941406 L 26.554688 -86.335938 L 71.425781 -86.335938 L 71.425781 -100.25 L 12.210938 -100.25 Z M 12.210938 0 "/></g></g></g></svg>